<svg xmlns="http://www.w3.org/2000/svg" width="14.188" height="22.115" viewBox="0 0 14.188 22.115"><defs><style>.a{fill:#fff;stroke:#fff;}</style></defs><g transform="translate(-95.5 0.5)"><g transform="translate(96)"><path class="a" d="M106.99,0H98.2A2.2,2.2,0,0,0,96,2.2V20.661a.44.44,0,0,0,.751.31l5.843-5.843,5.843,5.844a.443.443,0,0,0,.311.128.433.433,0,0,0,.168-.033.44.44,0,0,0,.272-.406V2.2A2.2,2.2,0,0,0,106.99,0Zm1.319,19.6-5.4-5.4a.44.44,0,0,0-.622,0l-5.4,5.4V2.2A1.32,1.32,0,0,1,98.2.879h8.792A1.32,1.32,0,0,1,108.309,2.2V19.6Z" transform="translate(-96)"/></g></g></svg>