<svg xmlns="http://www.w3.org/2000/svg" width="32.098" height="32.098" viewBox="0 0 32.098 32.098"><defs><style>.a{fill:#007ab9;}.b{fill:#f1f2f2;}</style></defs><circle class="a" cx="16.049" cy="16.049" r="16.049" transform="translate(0 0)"/><g transform="translate(7.744 6.858)"><path class="b" d="M44.962,34.452v6.617H41.126V34.9c0-1.55-.554-2.609-1.943-2.609a2.1,2.1,0,0,0-1.968,1.4,2.626,2.626,0,0,0-.127.935v6.444H33.252s.051-10.455,0-11.538h3.837v1.635c-.008.013-.019.025-.025.038h.025v-.038a3.809,3.809,0,0,1,3.457-1.906c2.524,0,4.416,1.649,4.416,5.192ZM29.239,23.969a2,2,0,1,0-.05,3.987h.025a2,2,0,1,0,.025-3.987ZM27.3,41.069h3.835V29.531H27.3Z" transform="translate(-27.068 -23.969)"/></g></svg>